<?xml version="1.0" encoding="utf-8"?>
<!-- Generator: Adobe Illustrator 19.2.1, SVG Export Plug-In . SVG Version: 6.00 Build 0)  -->
<svg version="1.1" xmlns="http://www.w3.org/2000/svg" xmlns:xlink="http://www.w3.org/1999/xlink" x="0px" y="0px"
	 viewBox="0 0 24 24" style="enable-background:new 0 0 24 24;" xml:space="preserve">
<style type="text/css">
	.st0{fill:#F28A1F;}
	.st1{fill:#42AAF3;}
</style>
<g id="Layer_1">
	<path class="st0" d="M13,4c-3.9,0-7,3.1-7,7c0,0.8,0.1,1.5,0.4,2.2c0,0-0.3,0.9,1.6,2.8s2.8,1.6,2.8,1.6c0.7,0.2,1.4,0.4,2.2,0.4
		c3.9,0,7-3.1,7-7S16.9,4,13,4z M13,16c-2.8,0-5-2.2-5-5s2.2-5,5-5s5,2.2,5,5S15.8,16,13,16z"/>
</g>
<g id="Layer_1_copy">
	<path class="st1" d="M6.4,13.2l-0.7,0.8l-0.5,0.5l-1,1c-0.6,0.6-0.9,1.3-0.9,2.2c0,1.7,1.4,3.1,3.1,3.1c0.8,0,1.5-0.3,2.1-0.8
		L8.5,20l0.1-0.1l1.5-1.5l0.8-0.7c0,0-1.1-0.1-2.8-1.9S6.4,13.2,6.4,13.2z"/>
</g>
</svg>
